<svg data-name="Layer 1" xmlns="http://www.w3.org/2000/svg" width="45" height="63" viewBox="0 0 45 63"><title>calculator</title><path d="M33.95 0h-22.9a11.1 11.1 0 0 0-11 11v40.95a11.1 11.1 0 0 0 11 11h22.9a11.1 11.1 0 0 0 11-11v-40.9A11.1 11.1 0 0 0 33.95 0zM12.64 51.22a2.91 2.91 0 1 1 2.91-2.91 2.91 2.91 0 0 1-2.91 2.91zm0-10.36a2.91 2.91 0 1 1 2.91-2.91 2.91 2.91 0 0 1-2.91 2.91zm0-10.36a2.91 2.91 0 1 1 2.91-2.91 2.91 2.91 0 0 1-2.91 2.91zm9.86 20.72a2.91 2.91 0 1 1 2.91-2.91 2.91 2.91 0 0 1-2.91 2.91zm0-10.36a2.91 2.91 0 1 1 2.91-2.91 2.91 2.91 0 0 1-2.91 2.91zm0-10.36a2.91 2.91 0 1 1 2.91-2.91 2.91 2.91 0 0 1-2.91 2.91zm9.86 20.72a2.91 2.91 0 1 1 2.91-2.91 2.91 2.91 0 0 1-2.91 2.91zm0-10.36a2.91 2.91 0 1 1 2.91-2.91 2.91 2.91 0 0 1-2.91 2.91zm0-10.36a2.91 2.91 0 1 1 2.91-2.91 2.91 2.91 0 0 1-2.91 2.91zm.69-12.94H11.96a3.3 3.3 0 1 1 0-6.59h21.08a3.3 3.3 0 1 1 0 6.59z" fill="#fff"/></svg>