<svg xmlns="http://www.w3.org/2000/svg" viewBox="0 0 772 911.25"><path d="M662 304.4h-57.9c-21.6-105.5-114.9-184.9-226.8-184.9S172 198.9 150.5 304.4H92V398h58.5c21.7 105.7 114.9 184.9 226.8 184.9 111.8 0 205.1-79.2 226.8-184.9h58v-93.6zM377.2 201.7c66.3 0 122.2 43.2 141.8 102.7H235.5c19.5-59.6 75.4-102.7 141.7-102.7zm0 299c-66.3 0-122.1-43.1-141.7-102.7h283.3c-19.5 59.6-75.3 102.7-141.6 102.7z"/><text y="744" font-size="5" font-weight="bold" font-family="'Helvetica Neue', Helvetica, Arial-Unicode, Arial, Sans-serif">Created by Tara Swart</text><text y="749" font-size="5" font-weight="bold" font-family="'Helvetica Neue', Helvetica, Arial-Unicode, Arial, Sans-serif">from the Noun Project</text></svg>