<svg xmlns="http://www.w3.org/2000/svg" viewBox="0 0 164 182.5"><title>Fill 199</title><path d="M91.26 53.35a7.75 7.75 0 0 1-.027.303v.006l-3.22 51.43a5.526 5.526 0 0 1-8.162 4.86 5.527 5.527 0 0 1-2.893-4.86l-3.22-51.43v-.006c-.011-.1-.02-.202-.027-.303a7.989 7.989 0 0 1-.036-.713 8.811 8.811 0 0 1 17.622 0c0 .241-.015.478-.036.713m-8.775 72.71a6.15 6.15 0 1 1 0-12.298 6.15 6.15 0 0 1 0 12.297m78.432-.345L93.106 8.26c-6.207-10.75-16.363-10.75-22.57 0L2.724 125.714c-6.206 10.75-1.128 19.546 11.285 19.546h135.624c12.414 0 17.492-8.796 11.285-19.546" fill-rule="evenodd"/><text y="161" font-size="5" font-weight="bold" font-family="'Helvetica Neue', Helvetica, Arial-Unicode, Arial, Sans-serif">Created by Thomas Miller</text><text y="166" font-size="5" font-weight="bold" font-family="'Helvetica Neue', Helvetica, Arial-Unicode, Arial, Sans-serif">from the Noun Project</text></svg>