<svg id="Layer_1" data-name="Layer 1" xmlns="http://www.w3.org/2000/svg" width="45" height="63" viewBox="0 0 45 63"><title>calculator</title><path d="M43.45.5H20.55a11.1,11.1,0,0,0-11,11V52.45a11.1,11.1,0,0,0,11,11H43.45a11.1,11.1,0,0,0,11-11V11.55A11.1,11.1,0,0,0,43.45.5ZM22.14,51.72a2.91,2.91,0,1,1,2.91-2.91A2.91,2.91,0,0,1,22.14,51.72Zm0-10.36a2.91,2.91,0,1,1,2.91-2.91A2.91,2.91,0,0,1,22.14,41.36Zm0-10.36a2.91,2.91,0,1,1,2.91-2.91A2.91,2.91,0,0,1,22.14,31ZM32,51.72a2.91,2.91,0,1,1,2.91-2.91A2.91,2.91,0,0,1,32,51.72Zm0-10.36a2.91,2.91,0,1,1,2.91-2.91A2.91,2.91,0,0,1,32,41.36ZM32,31a2.91,2.91,0,1,1,2.91-2.91A2.91,2.91,0,0,1,32,31Zm9.86,20.72a2.91,2.91,0,1,1,2.91-2.91A2.91,2.91,0,0,1,41.86,51.72Zm0-10.36a2.91,2.91,0,1,1,2.91-2.91A2.91,2.91,0,0,1,41.86,41.36Zm0-10.36a2.91,2.91,0,1,1,2.91-2.91A2.91,2.91,0,0,1,41.86,31Zm.69-12.94H21.46a3.3,3.3,0,1,1,0-6.59H42.54a3.3,3.3,0,1,1,0,6.59Z" transform="translate(-9.5 -0.5)" style="fill:#fff"/></svg>