<svg id="Layer_1" data-name="Layer 1" xmlns="http://www.w3.org/2000/svg" width="63" height="45" viewBox="0 0 63 45"><title>discount-card</title><path d="M52.45,9.5H11.55a11.1,11.1,0,0,0-11,11V43.45a11.1,11.1,0,0,0,11,11H52.45a11.1,11.1,0,0,0,11-11V20.55A11.1,11.1,0,0,0,52.45,9.5ZM32,44.68H12.36a2,2,0,0,1,0-4.09H32a2,2,0,1,1,0,4.09Zm0-8.18H12.36a2,2,0,0,1,0-4.09H32a2,2,0,1,1,0,4.09Zm14.73-3.27a8.59,8.59,0,1,1,8.59-8.59A8.59,8.59,0,0,1,46.73,33.23Z" transform="translate(-0.5 -9.5)" style="fill:#fff"/></svg>