<svg id="Layer_1" data-name="Layer 1" xmlns="http://www.w3.org/2000/svg" width="45" height="63" viewBox="0 0 45 63"><title>form</title><path d="M9.5,11.55V52.45a11.1,11.1,0,0,0,11,11H43.45a11.1,11.1,0,0,0,11-11V11.55a11.1,11.1,0,0,0-11-11H20.55A11.1,11.1,0,0,0,9.5,11.55Zm12.68,6.14H33.64a2,2,0,0,1,0,4.09H22.18a2,2,0,0,1,0-4.09Zm0,8.18H41.82a2,2,0,0,1,0,4.09H22.18a2,2,0,0,1,0-4.09Zm0,8.18H41.82a2,2,0,0,1,0,4.09H22.18a2,2,0,0,1,0-4.09Zm0,8.18H41.82a2,2,0,0,1,0,4.09H22.18a2,2,0,0,1,0-4.09Z" transform="translate(-9.5 -0.5)" style="fill:#fff"/></svg>
