<svg id="Layer_1" data-name="Layer 1" xmlns="http://www.w3.org/2000/svg" width="63" height="45" viewBox="0 0 63 45"><title>oyster-card</title><path d="M46.48,32A29.74,29.74,0,0,0,36.23,9.5H11.55a11.1,11.1,0,0,0-11,11V43.45a11.1,11.1,0,0,0,11,11H36.23A29.74,29.74,0,0,0,46.48,32Z" transform="translate(-0.5 -9.5)" style="fill:#fff"/><path d="M52.45,9.5H40.11a29.81,29.81,0,0,1,0,45H52.45a11.1,11.1,0,0,0,11-11V20.55A11.1,11.1,0,0,0,52.45,9.5Z" transform="translate(-0.5 -9.5)" style="fill:#fff"/></svg>