<svg xmlns="http://www.w3.org/2000/svg" xmlns:xlink="http://www.w3.org/1999/xlink" version="1.1" x="0px" y="0px" viewBox="0 0 772 911.25" style="enable-background:new 0 0 772 729;" xml:space="preserve"><path d="M662,304.4h-57.9c-21.6-105.5-114.9-184.9-226.8-184.9c-111.9,0-205.3,79.4-226.8,184.9H92V398h58.5  c21.7,105.7,114.9,184.9,226.8,184.9c111.8,0,205.1-79.2,226.8-184.9h58V304.4z M377.2,201.7c66.3,0,122.2,43.2,141.8,102.7H235.5  C255,244.8,310.9,201.7,377.2,201.7z M377.2,500.7c-66.3,0-122.1-43.1-141.7-102.7h283.3C499.3,457.6,443.5,500.7,377.2,500.7z"/><text x="0" y="744" fill="#000000" font-size="5px" font-weight="bold" font-family="'Helvetica Neue', Helvetica, Arial-Unicode, Arial, Sans-serif">Created by Tara Swart</text><text x="0" y="749" fill="#000000" font-size="5px" font-weight="bold" font-family="'Helvetica Neue', Helvetica, Arial-Unicode, Arial, Sans-serif">from the Noun Project</text></svg>