<svg xmlns="http://www.w3.org/2000/svg" xmlns:xlink="http://www.w3.org/1999/xlink" viewBox="0 0 164 182.5" version="1.1" x="0px" y="0px"><title>Fill 199</title><desc>Created with Sketch.</desc><g stroke="none" stroke-width="1" fill="none" fill-rule="evenodd"><g transform="translate(-5826.000000, -2670.000000)" fill="#000000"><path d="M5917.2607,2723.3501 C5917.2527,2723.4511 5917.2447,2723.5521 5917.2327,2723.6531 L5917.2327,2723.6591 L5914.0127,2775.0891 C5914.0127,2777.1871 5912.8437,2779.0131 5911.1207,2779.9491 C5910.8067,2780.1201 5910.4757,2780.2601 5910.1297,2780.3681 C5909.6107,2780.5291 5909.0577,2780.6161 5908.4857,2780.6161 C5907.9127,2780.6161 5907.3617,2780.5291 5906.8417,2780.3681 C5906.4957,2780.2601 5906.1637,2780.1201 5905.8507,2779.9491 C5904.1277,2779.0131 5902.9577,2777.1871 5902.9577,2775.0891 L5899.7387,2723.6591 L5899.7387,2723.6531 C5899.7267,2723.5521 5899.7187,2723.4511 5899.7107,2723.3501 C5899.6897,2723.1151 5899.6747,2722.8781 5899.6747,2722.6371 C5899.6747,2717.7711 5903.6197,2713.8261 5908.4857,2713.8261 C5913.3517,2713.8261 5917.2967,2717.7711 5917.2967,2722.6371 C5917.2967,2722.8781 5917.2817,2723.1151 5917.2607,2723.3501 M5908.4857,2796.0591 C5905.0897,2796.0591 5902.3367,2793.3071 5902.3367,2789.9111 C5902.3367,2786.5141 5905.0897,2783.7611 5908.4857,2783.7611 C5911.8817,2783.7611 5914.6347,2786.5141 5914.6347,2789.9111 C5914.6347,2793.3071 5911.8817,2796.0591 5908.4857,2796.0591 M5986.9177,2795.7141 L5919.1057,2678.2601 C5912.8987,2667.5091 5902.7427,2667.5091 5896.5357,2678.2601 L5828.7237,2795.7141 C5822.5177,2806.4641 5827.5957,2815.2601 5840.0087,2815.2601 L5975.6327,2815.2601 C5988.0467,2815.2601 5993.1247,2806.4641 5986.9177,2795.7141"/></g></g><text x="0" y="161" fill="#000000" font-size="5px" font-weight="bold" font-family="'Helvetica Neue', Helvetica, Arial-Unicode, Arial, Sans-serif">Created by Thomas Miller</text><text x="0" y="166" fill="#000000" font-size="5px" font-weight="bold" font-family="'Helvetica Neue', Helvetica, Arial-Unicode, Arial, Sans-serif">from the Noun Project</text></svg>