<svg id="Layer_1" data-name="Layer 1" xmlns="http://www.w3.org/2000/svg" width="163.49" height="145.06" viewBox="0 0 163.49 145.06"><title>warning</title><path d="M91.19,53.15c0,.1,0,.2,0,.3h0l-3.22,51.43a5.53,5.53,0,1,1-11.06,0L73.66,53.46h0c0-.1,0-.2,0-.3s0-.47,0-.71a8.81,8.81,0,1,1,17.62,0c0,.24,0,.48,0,.71m-8.77,72.71a6.15,6.15,0,1,1,6.15-6.15,6.15,6.15,0,0,1-6.15,6.15m78.43-.34L93,8.06c-6.21-10.75-16.36-10.75-22.57,0L2.65,125.52c-6.21,10.75-1.13,19.55,11.29,19.55H149.56c12.41,0,17.49-8.8,11.28-19.55" style="fill:#e8590c"/></svg>